<?xml version="1.0" standalone="no"?>
<!DOCTYPE svg PUBLIC "-//W3C//DTD SVG 20010904//EN"
 "http://www.w3.org/TR/2001/REC-SVG-20010904/DTD/svg10.dtd">
<svg version="1.0" xmlns="http://www.w3.org/2000/svg"
 width="2138.000000pt" height="2138.000000pt" viewBox="0 0 2138.000000 2138.000000"
 preserveAspectRatio="xMidYMid meet">

<g transform="translate(0.000000,2138.000000) scale(0.100000,-0.100000)"
fill="#000000" stroke="none">
<path d="M0 10690 l0 -10690 10690 0 10690 0 0 10690 0 10690 -10690 0 -10690
0 0 -10690z m20884 8859 c8 -59 -6 -89 -51 -111 -31 -15 -42 -51 -23 -74 9
-10 37 -14 108 -14 143 0 132 32 132 -372 0 -325 -1 -339 -20 -358 -19 -19
-33 -20 -353 -20 -280 0 -336 2 -354 15 -48 33 -37 133 17 155 16 7 32 21 35
31 5 14 8 287 5 421 0 10 -18 29 -40 43 -43 27 -51 53 -24 79 13 13 32 15 114
10 94 -7 98 -6 109 15 17 31 6 55 -34 74 -40 19 -50 47 -41 112 l7 45 203 0
203 0 7 -51z m-18734 -131 c11 -12 20 -25 20 -29 0 -4 7 -15 16 -23 12 -12 37
-16 104 -16 l88 0 32 -39 c17 -22 39 -43 50 -46 10 -3 22 -16 26 -28 9 -27 9
-407 0 -432 -4 -11 -21 -29 -39 -40 -29 -19 -32 -25 -35 -77 -5 -89 -1 -88
-292 -88 -291 0 -290 0 -290 85 0 47 -3 56 -26 72 -67 47 -64 33 -64 263 0
197 1 211 20 230 11 11 24 20 30 20 5 0 22 18 36 40 l27 40 93 0 c89 0 94 1
111 26 27 38 52 64 63 64 5 0 18 -10 30 -22z m1402 10 c8 -7 25 -28 37 -45
l22 -33 94 0 c117 0 123 -7 123 -123 0 -100 -18 -127 -84 -127 -45 0 -58 8
-106 68 -27 34 -101 31 -133 -4 -14 -15 -25 -30 -25 -34 0 -5 -15 -17 -34 -28
-63 -37 -61 -126 5 -168 37 -23 39 -27 39 -76 0 -70 17 -88 86 -88 52 0 55 2
80 40 26 39 28 40 85 40 76 0 87 -16 87 -123 0 -61 -4 -82 -20 -102 l-19 -25
-211 0 -210 0 -104 105 -104 104 0 176 0 175 31 19 c17 10 41 35 55 54 13 20
32 38 41 41 10 3 28 22 41 41 20 32 26 35 70 35 54 0 58 2 95 53 31 41 36 43
59 25z m7012 -33 c36 -43 39 -45 91 -45 69 0 75 -10 75 -129 0 -82 -2 -91 -22
-105 -33 -23 -103 -21 -129 5 -17 17 -19 27 -13 65 5 35 3 49 -11 64 -25 28
-52 25 -72 -7 -9 -16 -32 -42 -51 -59 l-35 -30 1 -165 c0 -90 1 -169 1 -176 2
-26 33 -43 81 -43 45 0 52 3 80 39 31 38 31 38 121 44 102 8 129 -1 129 -38 0
-18 -11 -32 -40 -50 -39 -24 -40 -27 -40 -80 0 -84 -3 -85 -252 -85 l-207 0
-26 27 c-14 15 -25 31 -25 34 0 4 -16 16 -35 28 -33 19 -35 23 -35 75 0 52
-16 86 -40 86 -5 0 -18 10 -30 22 -17 18 -20 35 -20 105 0 90 -3 83 71 147 14
12 19 29 19 66 0 34 5 53 17 62 9 7 35 32 57 56 38 38 47 42 89 42 36 0 51 5
65 22 47 59 61 68 105 68 41 0 48 -4 81 -45z m-9504 -60 c17 -15 20 -31 20
-107 0 -107 -14 -128 -84 -128 -58 0 -76 18 -76 76 0 25 -5 54 -10 65 -14 25
-66 26 -79 1 -9 -18 -5 -388 4 -438 3 -12 18 -27 34 -34 36 -15 55 -58 47
-105 -12 -60 -30 -65 -217 -65 l-168 0 -20 26 c-27 35 -28 97 -2 122 11 9 31
25 45 35 l26 18 -2 222 -3 222 -37 18 c-31 14 -38 22 -38 47 0 16 6 33 14 37
8 4 130 7 271 7 230 -1 257 -3 275 -19z m3692 15 c155 0 154 0 151 -131 -2
-74 0 -89 17 -104 24 -22 51 -13 73 25 10 17 31 37 48 45 43 23 40 60 -6 82
-27 13 -35 23 -35 44 0 15 6 31 13 36 16 10 268 11 290 1 30 -15 21 -56 -17
-79 -19 -11 -42 -31 -51 -45 -9 -14 -27 -30 -39 -36 -31 -13 -47 -50 -40 -88
7 -33 -17 -80 -40 -80 -7 0 -21 -9 -31 -20 -15 -16 -17 -32 -13 -97 6 -83 -4
-119 -33 -128 -36 -12 -49 -35 -49 -86 0 -36 -5 -54 -20 -69 -18 -18 -33 -20
-190 -20 -157 0 -172 2 -190 20 -25 25 -27 95 -4 128 15 22 22 23 109 21 102
-3 125 6 125 47 0 16 -10 28 -32 40 -44 22 -42 19 -48 82 -4 50 -9 59 -37 77
-39 25 -51 50 -45 97 3 28 -1 40 -18 55 -11 10 -38 34 -58 54 -20 19 -49 43
-64 52 -32 20 -35 42 -10 70 14 16 25 18 67 13 28 -3 107 -6 177 -6z m1886 -4
c7 -4 12 -18 12 -30 0 -24 -16 -42 -54 -61 -20 -10 -21 -17 -24 -229 -3 -257
-3 -256 84 -256 77 0 84 -14 84 -165 0 -151 -7 -165 -85 -165 -70 0 -85 15
-85 84 0 28 -5 57 -12 64 -9 9 -76 12 -240 12 -258 0 -248 3 -248 -84 0 -60
-18 -76 -85 -76 -78 0 -85 14 -85 165 0 150 7 165 82 165 89 0 88 -2 88 251
l0 219 -40 25 c-42 27 -54 66 -25 82 18 10 617 9 633 -1z m2745 -13 c15 -14
17 -37 17 -189 0 -200 -1 -204 -81 -204 -38 0 -53 -5 -67 -22 -42 -52 -52 -58
-98 -58 -61 0 -84 -14 -84 -51 0 -35 27 -49 95 -49 56 0 81 -30 72 -88 -11
-69 -23 -72 -256 -72 -195 0 -209 1 -229 20 -39 37 -21 150 23 150 8 0 21 10
29 22 13 19 16 58 16 228 0 113 -4 210 -8 216 -4 6 -21 18 -38 27 -39 20 -49
43 -31 71 14 21 18 21 318 18 258 -3 307 -6 322 -19z m2749 -3 c13 -16 17 -40
17 -100 0 -102 -19 -130 -85 -130 -63 0 -88 27 -80 85 5 32 3 47 -9 59 -20 19
-58 21 -73 3 -6 -7 -10 -92 -10 -226 1 -233 -3 -219 62 -264 22 -15 26 -25 26
-67 0 -37 -5 -55 -20 -70 -18 -18 -33 -20 -190 -20 -157 0 -172 2 -190 20 -37
37 -18 150 25 150 8 0 21 10 29 22 13 18 16 59 16 232 -1 219 -4 236 -44 236
-34 0 -46 -20 -46 -76 0 -34 -5 -58 -16 -68 -20 -21 -30 -20 -54 4 -16 16 -20
33 -20 95 0 90 13 123 54 133 17 5 157 7 311 6 272 -3 280 -3 297 -24z m1331
-3 c17 -20 19 -39 16 -228 -3 -163 -1 -210 10 -223 7 -9 18 -16 24 -16 18 0
47 -32 47 -52 0 -10 -14 -27 -32 -38 -56 -32 -59 -38 -53 -83 5 -34 2 -46 -15
-64 -21 -23 -23 -23 -314 -23 -271 0 -296 1 -317 18 -18 15 -22 29 -22 67 0
49 13 68 68 100 16 10 18 30 18 230 l0 220 -41 28 c-44 30 -51 50 -28 76 13
14 52 16 318 13 296 -3 303 -4 321 -25z m1413 8 c10 -13 14 -48 14 -111 0 -85
-2 -94 -22 -108 -13 -9 -43 -16 -70 -16 -72 0 -82 -21 -71 -147 l8 -98 65 -3
c85 -4 90 -11 90 -128 0 -132 22 -124 -336 -124 l-293 0 -20 26 c-27 35 -28
97 -2 122 11 9 31 25 45 35 l26 18 0 219 0 220 -40 20 c-33 17 -40 26 -40 50
0 16 6 33 14 37 8 4 150 8 316 7 285 0 303 -1 316 -19z m1498 6 c27 -23 18
-48 -26 -78 l-43 -29 -2 -212 c-3 -233 -6 -218 61 -265 22 -15 26 -25 26 -67
0 -37 -5 -55 -20 -70 -19 -19 -33 -20 -399 -20 l-380 0 -21 28 c-18 21 -21 36
-17 72 3 27 12 49 22 55 9 5 28 18 41 28 l24 19 -2 221 -3 222 -37 18 c-31 14
-38 22 -38 47 0 16 6 33 14 37 8 4 188 8 399 8 307 -1 388 -3 401 -14z m1501
-5 c19 -25 7 -55 -29 -73 -17 -9 -34 -21 -38 -27 -4 -6 -8 -105 -8 -220 0
-181 2 -212 17 -228 9 -10 22 -18 29 -18 44 0 60 -114 22 -150 -21 -19 -33
-20 -398 -20 -365 0 -377 1 -398 20 -39 37 -21 150 23 150 8 0 21 10 29 22 13
19 16 58 16 228 0 113 -4 210 -8 216 -4 6 -21 18 -38 27 -39 20 -49 43 -31 71
14 21 18 21 407 20 361 0 394 -2 405 -18z m1081 2 c22 -22 9 -55 -29 -75 -42
-21 -47 -30 -47 -80 0 -70 21 -83 134 -83 87 0 95 -2 109 -23 8 -13 35 -44 61
-70 25 -26 46 -52 46 -57 0 -18 59 -11 68 8 5 9 7 77 4 150 l-5 133 -38 25
c-40 25 -53 64 -27 80 7 4 73 8 148 9 106 1 139 -2 153 -13 28 -24 20 -50 -23
-77 -22 -14 -40 -31 -41 -38 0 -6 -1 -106 -1 -222 0 -190 1 -211 17 -220 55
-32 68 -51 68 -100 0 -38 -4 -52 -22 -67 -22 -17 -51 -18 -482 -18 -446 0
-460 1 -479 20 -15 15 -20 33 -20 70 0 42 4 52 26 67 68 47 65 32 62 265 l-3
212 -35 24 c-46 30 -58 57 -37 80 14 15 36 17 197 16 150 0 183 -3 196 -16z
m-11115 -47 l59 -59 0 -91 c0 -86 1 -91 26 -108 59 -41 65 -51 59 -98 -6 -35
-3 -46 12 -59 10 -9 50 -46 88 -82 66 -63 70 -69 70 -111 0 -35 -5 -49 -24
-64 -21 -17 -41 -19 -189 -19 -196 0 -202 2 -202 86 0 34 -5 58 -16 68 -41 41
-89 -3 -78 -72 5 -32 2 -44 -15 -61 -19 -19 -32 -21 -144 -21 -137 0 -161 8
-172 60 -7 33 11 100 27 100 5 0 31 21 57 48 26 26 56 52 66 58 18 10 20 22
20 108 0 93 1 99 25 116 55 41 60 49 60 96 0 42 4 50 58 104 54 56 60 59 105
59 46 1 52 -2 108 -58z m12620 -1641 l32 -40 222 0 222 0 32 40 c29 36 36 40
78 40 87 0 83 20 83 -412 0 -378 -3 -418 -35 -418 -21 0 -55 -49 -55 -81 0
-41 17 -71 53 -94 l32 -20 3 -137 3 -137 -41 -26 c-34 -21 -41 -31 -38 -53 2
-15 12 -31 24 -37 57 -28 54 -10 54 -375 0 -365 3 -347 -54 -375 -12 -6 -22
-22 -24 -37 -3 -22 4 -32 37 -53 l41 -25 0 -175 c0 -163 -1 -176 -20 -192 -11
-10 -40 -37 -64 -60 -24 -24 -49 -43 -55 -43 -6 0 -17 -16 -25 -35 l-15 -35
-236 0 -236 0 -14 33 c-7 18 -25 38 -39 45 -14 6 -32 22 -41 36 -9 14 -32 34
-51 45 l-34 20 0 185 0 185 28 15 c15 8 42 32 60 55 30 38 37 41 82 41 44 0
51 3 80 40 l32 40 134 0 133 0 23 30 c12 17 37 39 55 50 36 21 45 58 19 79
-10 8 -79 11 -227 11 l-213 -1 -40 -45 c-36 -40 -44 -44 -85 -44 -78 0 -81 6
-81 208 0 205 3 212 81 212 44 0 50 -3 85 -45 l36 -45 217 0 c229 0 241 2 241
47 0 16 -12 31 -40 48 -39 24 -40 27 -40 80 0 54 -1 55 -37 72 -28 13 -39 25
-41 45 -3 22 4 32 37 52 22 14 45 34 50 45 6 10 24 24 41 30 28 9 31 14 28 43
-2 22 -10 36 -26 44 -13 6 -38 28 -56 48 l-34 36 -171 0 c-158 0 -173 -2 -191
-20 -26 -26 -28 -103 -2 -125 9 -9 49 -45 87 -82 65 -61 70 -68 70 -108 0 -60
-25 -85 -84 -85 -44 0 -48 3 -127 85 -45 47 -86 85 -92 85 -25 0 -32 45 -32
214 l0 176 38 18 c30 14 37 22 37 47 0 23 -7 33 -30 44 -16 8 -33 19 -37 25
-4 6 -8 182 -8 390 0 434 -3 416 81 416 44 0 51 -3 80 -40z m-20063 -59 c9
-11 25 -31 35 -45 l18 -26 213 0 214 0 36 45 c34 41 41 45 82 45 31 0 50 -6
64 -20 19 -19 20 -33 20 -442 0 -484 5 -458 -86 -458 -52 0 -55 2 -80 40 l-27
40 -222 0 -222 0 -27 -40 c-30 -45 -58 -52 -80 -17 -13 18 -14 42 -6 142 5 66
10 123 10 127 0 15 -33 38 -54 38 -15 0 -31 -12 -47 -37 -23 -37 -26 -38 -92
-41 l-67 -3 0 211 0 211 67 -3 c67 -3 68 -3 96 -45 32 -49 59 -55 82 -20 13
20 14 41 5 143 -5 65 -10 122 -10 127 0 10 38 47 50 47 6 0 18 -9 28 -19z
m12122 -818 c48 -49 95 -93 106 -99 15 -9 18 -21 16 -62 -2 -55 4 -65 62 -105
23 -16 26 -24 24 -66 -4 -84 -18 -81 332 -81 l307 0 27 40 26 40 219 0 219 0
32 40 c29 36 36 40 78 40 54 0 60 4 89 45 12 17 32 36 45 43 12 7 33 28 46 47
l22 35 94 0 c74 0 98 -4 111 -16 14 -14 16 -55 13 -359 -2 -361 -1 -375 43
-375 9 0 25 7 33 16 14 13 16 48 16 230 0 129 4 223 10 235 10 18 23 19 187
19 150 0 179 -2 195 -17 17 -15 18 -84 18 -1775 l0 -1758 31 -19 c17 -10 41
-35 55 -54 13 -20 33 -38 43 -42 11 -3 29 -21 41 -40 12 -19 30 -37 40 -40 10
-3 28 -21 40 -40 12 -19 29 -37 39 -40 10 -3 31 -23 45 -45 25 -38 29 -40 78
-40 34 0 58 6 70 17 17 15 18 68 18 1271 0 1425 -9 1292 86 1292 93 0 84 141
84 -1425 -1 -1289 0 -1381 16 -1390 23 -13 134 -127 157 -159 21 -30 39 -33
62 -10 14 15 16 79 14 652 l-1 636 24 18 c63 46 58 16 58 391 0 253 3 346 12
355 7 7 38 12 69 12 98 0 90 114 89 -1167 l-1 -1122 103 -100 c57 -55 113
-109 126 -121 19 -16 21 -24 12 -40 -6 -12 -21 -25 -34 -29 -12 -5 -34 -25
-50 -45 -25 -34 -31 -36 -81 -36 -53 0 -56 -1 -80 -40 -24 -38 -28 -40 -77
-40 -94 0 -88 40 -88 -541 l0 -508 -22 -15 c-13 -9 -43 -16 -70 -16 -67 0 -99
-37 -62 -74 13 -14 49 -16 232 -16 119 0 222 -4 227 -8 6 -4 21 -22 34 -39
l22 -33 180 0 179 0 22 -34 c13 -19 35 -42 50 -51 16 -9 28 -20 28 -24 0 -4
11 -20 25 -35 19 -21 33 -26 71 -26 46 0 47 0 169 -125 120 -123 123 -125 167
-125 39 0 49 -5 85 -42 22 -24 46 -47 52 -53 6 -5 42 -43 81 -82 68 -71 71
-73 119 -73 44 0 50 -3 72 -35 13 -19 32 -38 42 -41 10 -3 25 -17 34 -31 9
-14 34 -36 55 -49 37 -24 46 -46 30 -72 -7 -10 -922 -12 -4608 -12 -4491 -1
-4599 0 -4612 18 -18 27 -5 50 34 67 19 8 34 18 34 23 0 4 9 18 20 30 16 17
32 22 67 22 45 0 49 2 128 85 82 84 83 85 132 85 47 0 52 2 76 39 15 22 34 42
44 45 10 3 28 22 41 41 20 32 26 35 73 35 51 0 62 7 111 68 14 17 29 22 65 22
45 0 49 2 123 80 74 77 78 80 122 80 36 0 51 6 72 26 14 15 26 30 26 35 0 4
12 15 28 24 15 9 37 32 50 51 21 32 26 34 76 34 50 0 56 3 77 33 31 43 37 47
88 47 42 0 47 4 126 85 l82 85 2345 0 c1290 0 2420 -3 2511 -7 l167 -6 17 -36
18 -36 180 0 c141 0 184 3 198 14 28 23 20 49 -23 76 -22 14 -40 31 -41 38 0
6 0 197 1 424 l1 411 -38 28 c-21 16 -42 33 -46 39 -5 5 -6 65 -4 132 5 157
-3 173 -85 173 -46 0 -77 -17 -79 -43 0 -7 0 -273 1 -593 1 -633 4 -603 -56
-607 -22 -2 -29 3 -35 26 -14 52 -24 57 -124 57 -77 0 -95 3 -109 19 -16 17
-17 62 -16 557 1 297 -1 546 -5 554 -3 8 -20 24 -38 35 l-32 20 -5 144 c-4
117 -8 145 -20 149 -8 3 -33 24 -55 48 -37 40 -45 44 -88 44 -39 0 -53 5 -72
26 -14 15 -25 31 -25 35 0 4 -13 15 -29 25 -15 9 -36 30 -46 46 -9 16 -27 34
-39 39 -13 6 -31 24 -40 40 -10 17 -28 35 -41 41 -13 6 -27 18 -30 26 -3 9 -5
635 -5 1393 0 1245 -1 1379 -16 1393 -23 23 -61 20 -75 -6 -10 -18 -11 -503
-6 -2145 7 -1926 6 -2123 -9 -2137 -14 -15 -213 -16 -2102 -16 l-2086 0 -81
-85 c-80 -83 -83 -85 -128 -85 -36 0 -51 -5 -65 -22 -17 -22 -48 -53 -74 -74
-7 -7 -25 -26 -40 -43 -23 -27 -32 -31 -77 -31 -47 0 -52 -3 -73 -35 -13 -19
-31 -38 -41 -41 -10 -3 -29 -23 -44 -45 -24 -37 -28 -39 -78 -39 -50 0 -54 -2
-89 -45 -35 -42 -41 -45 -84 -45 -45 0 -49 -2 -123 -80 -75 -78 -78 -80 -124
-80 -38 0 -51 -5 -68 -26 -12 -14 -29 -33 -38 -41 -51 -46 -66 -62 -81 -81
-14 -17 -29 -22 -65 -22 -45 0 -48 -2 -128 -85 -79 -83 -82 -85 -128 -85 -42
0 -49 -4 -78 -40 -18 -22 -39 -42 -48 -45 -9 -3 -26 -21 -39 -40 l-22 -35
-263 0 c-144 0 -268 -4 -275 -9 -20 -13 -11 -64 14 -76 55 -27 54 -22 54 -247
0 -125 -4 -217 -10 -229 -10 -18 -24 -19 -238 -19 -164 0 -231 3 -240 12 -8 8
-12 46 -12 105 0 80 -3 96 -20 113 -20 20 -32 20 -1934 20 -2221 0 -1963 16
-1958 -124 5 -135 21 -126 -246 -126 -164 0 -231 3 -240 12 -9 9 -12 83 -12
271 l0 259 60 59 c57 56 63 59 110 59 47 0 51 2 76 40 25 38 29 40 79 40 50 0
54 2 89 45 35 42 41 45 84 45 45 0 49 2 123 80 74 77 79 80 123 80 47 0 52 3
103 64 18 22 30 26 71 26 47 0 53 3 82 40 29 36 36 40 78 40 54 0 60 3 91 48
20 29 27 32 72 32 50 0 54 3 106 64 18 22 30 26 71 26 47 0 53 3 82 40 29 37
36 40 80 40 45 0 52 3 81 40 30 37 36 40 81 40 49 0 54 3 105 64 17 21 30 26
68 26 45 0 49 3 124 80 75 77 80 80 123 80 40 0 48 4 85 45 38 42 44 45 91 45
47 0 52 3 71 34 12 19 28 37 37 40 9 3 127 6 263 6 183 0 252 3 264 13 17 12
18 138 17 2184 0 2166 0 2173 20 2193 17 17 33 20 108 20 48 0 92 4 97 8 6 4
21 22 34 40 l22 32 175 0 c190 0 174 -5 231 64 l21 26 215 0 215 0 32 40 32
40 191 0 c190 0 253 -8 269 -32 4 -7 8 -651 8 -1432 0 -1054 2 -1422 11 -1432
9 -11 44 -14 148 -14 75 0 141 4 146 8 6 4 21 22 34 40 l22 32 718 0 718 0 32
40 32 40 673 0 674 0 36 45 37 45 718 0 c544 0 720 3 729 12 7 7 12 36 12 64
0 54 7 65 64 99 16 9 17 124 16 1555 0 1392 1 1547 15 1568 15 20 24 22 114
22 62 0 101 4 109 12 21 21 14 56 -15 75 -16 10 -60 50 -99 90 l-71 73 -260 0
-260 0 -32 -40 -32 -40 -174 0 -173 0 -32 -40 -32 -40 -174 0 c-167 0 -175 -1
-192 -22 -58 -73 -39 -68 -275 -68 l-214 0 -32 -40 -32 -40 -174 0 -174 0 -32
-40 -32 -40 -217 0 -218 0 -36 -45 -37 -45 -174 0 -173 0 -32 -40 -32 -40
-218 0 -219 0 -22 -32 c-13 -18 -28 -36 -34 -40 -5 -4 -86 -8 -180 -8 l-170 0
-35 -41 -36 -41 -218 -1 -218 -2 -18 -25 c-49 -66 -41 -63 -181 -58 -165 6
-169 9 -169 122 0 129 -5 126 210 126 l178 0 32 40 32 40 173 0 174 0 37 45
36 45 178 0 177 0 27 40 26 40 179 0 180 0 22 33 c13 17 28 35 34 39 5 4 87 8
182 8 l172 0 37 45 36 45 177 0 176 0 28 40 28 40 180 0 179 0 26 40 27 40
177 0 178 0 36 45 37 45 174 0 173 0 32 40 32 40 171 0 c95 0 177 4 182 8 6 4
21 22 34 40 l22 32 175 0 175 0 23 26 c13 15 31 35 40 45 14 17 32 19 183 19
l167 0 86 -87z m7894 -1920 c31 -5 41 -12 52 -38 7 -18 21 -35 29 -39 23 -9
428 -7 441 2 6 4 19 21 27 39 15 28 23 32 72 38 46 6 59 4 76 -11 18 -16 19
-29 17 -238 l-3 -221 -32 -20 c-35 -22 -53 -53 -53 -91 0 -37 15 -59 55 -83
l35 -20 0 -555 c0 -530 -1 -555 -19 -568 -16 -11 -45 -14 -112 -9 -8 1 -22 15
-30 33 -28 63 -81 63 -87 -1 -3 -29 0 -34 36 -48 27 -10 44 -25 53 -46 13 -30
18 -32 74 -37 33 -3 66 -9 73 -13 9 -6 12 -47 12 -147 0 -134 -1 -140 -22
-154 -16 -10 -40 -12 -80 -9 -63 6 -62 5 -59 80 2 32 -2 46 -19 60 -12 10 -40
37 -63 61 -38 39 -44 42 -93 42 -48 0 -55 -3 -75 -32 -31 -45 -37 -48 -91 -48
-41 0 -50 -4 -70 -31 -13 -17 -36 -38 -51 -46 -16 -8 -35 -29 -43 -48 -12 -30
-17 -33 -66 -37 -34 -3 -61 0 -75 9 l-23 13 0 763 c0 580 3 766 12 775 7 7 37
12 67 12 52 0 58 -3 91 -39 l35 -40 203 -5 c225 -6 252 -1 252 44 0 43 -16 50
-115 50 l-92 0 -62 59 -62 59 2 87 c3 81 1 89 -20 106 -15 12 -39 19 -66 19
-38 0 -46 -4 -79 -45 -34 -40 -42 -45 -79 -45 -24 0 -53 7 -65 16 -21 15 -22
21 -22 191 0 220 3 225 114 206z m-19995 -205 l24 -38 218 0 217 0 32 40 c30
38 35 40 85 40 90 0 85 28 85 -452 0 -484 5 -458 -86 -458 -49 0 -54 2 -84 40
l-32 40 -217 0 -218 0 -24 -37 c-13 -21 -33 -39 -45 -41 -46 -7 -47 2 -47 457
0 236 4 434 8 440 14 24 59 7 84 -31z m20542 -2065 c10 -27 97 -117 143 -146
l26 -17 0 -176 0 -176 -60 -59 c-55 -54 -64 -59 -105 -59 -46 0 -52 -4 -100
-62 -16 -19 -31 -25 -70 -26 -38 -2 -54 -7 -69 -24 -17 -21 -18 -35 -13 -145
7 -156 10 -153 -136 -153 -79 0 -107 3 -108 13 -7 147 -6 263 1 277 5 9 23 23
39 30 35 14 47 41 31 70 -9 16 -21 20 -66 20 -55 0 -57 1 -115 59 l-59 59 0
176 0 176 26 17 c36 23 126 113 147 146 l17 27 230 0 230 0 11 -27z m-19899
-820 c16 -14 18 -34 18 -186 0 -202 -2 -207 -86 -207 -52 0 -55 -1 -79 -40
-15 -25 -33 -40 -45 -40 -24 0 -53 -41 -44 -64 17 -45 78 -39 90 10 3 13 14
29 24 34 28 15 93 12 118 -6 21 -15 22 -21 22 -189 0 -203 -1 -205 -85 -205
-50 0 -55 2 -85 40 l-32 40 -216 -2 -217 -3 -24 -37 c-19 -29 -31 -38 -52 -38
-17 0 -32 7 -36 18 -6 12 -9 313 -4 364 1 4 10 12 21 18 26 14 55 -1 74 -39
12 -23 24 -29 62 -35 76 -10 118 31 77 76 -9 10 -21 18 -26 18 -6 0 -27 18
-47 40 -33 35 -42 40 -83 40 -26 0 -52 6 -60 14 -21 22 -30 263 -11 294 19 30
50 28 71 -5 9 -16 47 -57 83 -93 36 -36 76 -80 89 -98 29 -42 57 -39 89 8 13
19 31 39 40 43 9 4 27 23 40 42 20 32 27 35 70 35 70 0 92 19 92 82 0 69 18
88 83 88 33 0 57 -6 69 -17z m19404 -273 c9 -21 25 -42 36 -46 11 -3 114 -3
230 1 l209 8 25 38 c23 37 26 39 78 39 93 0 86 50 86 -626 l0 -594 -40 -25
c-38 -24 -40 -28 -40 -77 0 -86 -4 -88 -204 -88 -227 0 -218 -6 -216 149 1 64
1 124 1 133 -2 31 -30 48 -79 48 -54 0 -60 -3 -91 -47 -21 -31 -26 -33 -80
-33 -31 0 -62 5 -69 12 -9 9 -12 148 -12 564 0 489 2 554 16 568 10 11 34 16
75 16 l59 0 16 -40z m62 -1389 c9 -10 27 -31 39 -45 20 -24 27 -26 108 -26
l87 0 37 -40 c32 -35 42 -40 81 -40 52 0 58 -4 89 -47 20 -30 27 -33 75 -33
59 0 82 -16 92 -66 8 -40 -10 -82 -44 -101 -16 -9 -38 -31 -50 -50 l-22 -33
-94 0 -94 0 -36 -45 -37 -45 -93 0 c-91 0 -93 0 -114 -30 -12 -16 -36 -37 -52
-45 -23 -12 -30 -22 -30 -45 0 -18 7 -32 18 -38 9 -4 115 -6 235 -4 l218 4 25
39 c23 38 26 39 78 39 93 0 86 45 86 -586 l0 -554 -40 -25 c-38 -24 -40 -28
-40 -73 0 -85 -2 -86 -207 -91 l-178 -3 -36 -39 c-33 -36 -40 -39 -87 -39 -45
0 -54 3 -69 28 -21 32 -111 122 -147 145 l-26 17 0 765 c0 883 -15 785 123
785 97 0 112 10 128 81 8 33 6 47 -6 65 -22 35 -49 30 -85 -16 -29 -36 -36
-40 -78 -40 -72 0 -82 15 -82 126 0 117 7 124 127 124 69 0 86 -3 101 -19z
m-19621 -1258 c10 -16 53 -62 95 -104 l78 -76 0 -211 c0 -195 -1 -213 -19
-228 -36 -31 -66 -61 -83 -82 -14 -17 -28 -22 -67 -22 -46 0 -52 -3 -81 -40
l-32 -40 -93 0 -93 0 -32 40 c-30 38 -35 40 -85 40 -51 0 -56 2 -79 36 -13 20
-38 45 -55 55 l-31 19 0 95 0 95 -41 25 c-33 21 -40 31 -37 53 2 15 12 31 24
37 51 25 54 33 54 131 0 117 7 124 127 124 104 0 123 -14 123 -89 0 -50 -8
-62 -66 -97 -14 -8 -18 -27 -20 -99 -5 -140 -12 -135 206 -135 149 0 181 3
194 16 17 17 17 16 19 107 1 88 -7 112 -43 127 -34 14 -36 22 -45 130 -4 59
-2 80 10 98 22 30 51 28 72 -5z m19510 -813 c28 0 35 -6 50 -37 l18 -38 222
-3 221 -2 31 39 c27 34 38 40 79 43 30 3 55 0 70 -9 22 -13 22 -14 22 -278 0
-242 -2 -265 -17 -273 -10 -5 -59 -12 -109 -15 -80 -6 -93 -4 -108 11 -9 10
-16 30 -16 44 0 22 6 26 40 32 34 5 40 11 48 40 10 36 5 83 -11 104 -5 6 -20
12 -33 12 -33 0 -58 -41 -51 -84 3 -19 3 -44 0 -55 -5 -20 -12 -21 -158 -21
-171 0 -170 0 -159 71 8 48 -15 89 -50 89 -41 0 -63 -52 -46 -110 11 -39 25
-50 63 -50 22 0 27 -4 27 -25 0 -27 -32 -65 -55 -65 -18 0 -34 -28 -28 -51 3
-9 17 -22 32 -28 14 -7 39 -27 54 -46 l28 -35 178 0 178 0 32 40 c28 35 37 40
74 40 24 0 53 -7 65 -16 l22 -15 0 -1049 c0 -1187 8 -1080 -85 -1080 -35 0
-59 -5 -69 -16 -22 -21 -20 -31 9 -57 14 -12 44 -40 69 -62 24 -22 51 -46 60
-53 14 -11 16 -38 16 -185 0 -95 -4 -177 -8 -183 -4 -6 -20 -17 -37 -25 -21
-10 -31 -23 -33 -41 -3 -22 4 -32 37 -53 l41 -25 0 -840 c0 -838 0 -840 21
-861 17 -17 30 -20 85 -17 l64 3 0 -207 0 -208 -67 0 c-86 0 -103 -14 -103
-83 0 -67 -18 -87 -81 -87 -44 0 -50 3 -85 45 l-36 45 -213 0 -213 0 -36 -45
c-34 -41 -41 -45 -83 -45 -29 0 -53 6 -65 17 -17 15 -18 64 -18 1149 l0 1133
22 15 c12 9 42 16 65 16 44 0 58 -10 94 -62 l17 -24 218 1 c121 0 225 4 232 8
6 5 12 21 12 37 0 37 -23 50 -88 50 -60 0 -77 16 -77 75 0 38 6 48 55 96 30
30 68 62 83 72 37 24 34 66 -4 84 -15 7 -39 29 -53 48 l-27 35 -175 0 c-161 0
-176 -2 -194 -20 -26 -26 -28 -103 -2 -125 9 -8 49 -45 87 -81 65 -62 70 -69
70 -109 0 -62 -16 -75 -91 -75 l-64 0 -17 38 c-17 36 -20 37 -78 42 -33 3 -66
9 -72 13 -10 6 -13 64 -13 233 l0 224 38 17 c27 13 38 25 40 45 3 22 -4 32
-37 53 l-41 25 0 507 c0 575 -5 543 79 543 53 0 59 -3 90 -47 21 -31 26 -33
81 -33 36 0 62 5 67 13 4 6 10 75 13 152 l5 140 31 20 c17 11 41 35 53 53 l21
32 93 0 c114 0 128 8 134 77 5 42 2 54 -16 72 -20 20 -30 21 -236 21 -204 0
-216 -1 -236 -21 -17 -17 -19 -28 -14 -64 6 -36 3 -47 -14 -64 -19 -19 -32
-21 -151 -21 -154 0 -170 8 -170 85 0 61 24 85 87 85 83 0 83 1 83 248 0 251
0 252 -83 252 -67 0 -87 18 -87 81 0 62 17 79 81 79 36 0 54 5 69 20 19 19 20
33 20 279 0 258 0 260 23 276 12 9 31 13 42 11 11 -3 35 -6 52 -6z m-16622
-168 c6 -4 21 -22 34 -39 l22 -33 218 0 219 0 36 -45 c34 -41 41 -45 82 -45
l46 0 209 -207 c115 -115 219 -216 230 -226 18 -16 20 -26 14 -62 -6 -47 -1
-57 59 -98 l27 -18 -2 -177 c-1 -169 0 -178 21 -192 68 -49 62 -19 62 -304 -1
-230 -3 -260 -18 -277 -9 -10 -23 -19 -29 -19 -30 0 -37 -30 -36 -161 1 -111
-1 -135 -15 -150 -10 -11 -23 -19 -30 -19 -24 0 -46 -46 -39 -79 9 -44 -1 -66
-41 -87 -37 -20 -42 -32 -46 -104 -2 -33 -8 -47 -23 -55 -11 -5 -50 -41 -88
-80 -37 -38 -71 -74 -76 -78 -36 -33 -58 -56 -73 -75 -14 -17 -28 -22 -65 -22
-44 0 -51 -3 -83 -41 l-35 -41 -90 0 c-95 -1 -96 -2 -147 -66 -18 -22 -20 -22
-396 -22 l-378 0 -41 45 -40 45 -88 0 -87 0 -77 80 c-74 77 -78 80 -122 80
-40 0 -50 5 -86 43 -23 23 -51 50 -62 60 -17 13 -21 29 -21 72 0 46 -3 56 -22
66 -13 7 -51 41 -86 76 l-62 63 6 84 c7 82 6 83 -21 102 -71 50 -65 -7 -65
599 0 535 0 545 20 563 74 63 73 61 66 103 -7 41 -6 42 65 103 14 12 19 29 19
66 0 33 5 53 16 62 9 7 92 88 184 181 l169 167 86 0 c92 0 93 1 147 68 17 21
25 22 192 22 l174 0 32 40 c29 36 36 40 78 40 26 0 52 -4 57 -8z m5419 -91
c16 -17 18 -49 18 -316 0 -267 -2 -299 -18 -316 -15 -17 -32 -19 -147 -19
-173 0 -167 -6 -167 162 0 71 -5 138 -10 149 -10 18 -25 19 -404 19 -322 0
-396 -3 -405 -14 -8 -10 -11 -281 -12 -1022 l0 -1009 22 -17 c18 -16 44 -18
195 -18 207 0 202 3 202 -123 0 -131 72 -118 -673 -117 -586 0 -641 2 -652 17
-8 10 -13 50 -13 104 0 115 4 119 120 119 69 0 92 4 109 18 l21 17 0 1009 c0
743 -3 1012 -11 1022 -8 10 -38 14 -105 14 -133 0 -134 1 -134 170 0 117 2
132 20 150 20 20 33 20 1023 20 976 0 1004 -1 1021 -19z m3246 -1 c18 -18 20
-33 20 -150 0 -174 4 -170 -177 -170 -128 0 -133 -1 -148 -23 -13 -21 -15 -94
-14 -568 1 -353 5 -548 11 -556 20 -24 55 -15 77 20 11 18 33 42 50 55 26 19
30 29 33 79 3 52 6 60 35 78 17 11 39 33 48 48 9 16 27 33 39 38 12 6 31 24
41 40 11 16 35 38 53 49 30 18 32 23 32 74 0 39 5 59 16 68 9 7 58 54 109 103
51 50 100 96 109 103 11 9 16 29 16 62 0 37 5 54 19 66 32 28 65 60 83 80 9
10 28 27 42 37 22 15 26 26 26 64 0 72 -16 83 -122 83 -79 0 -91 3 -111 23
-21 20 -22 31 -21 149 0 109 3 131 19 148 18 20 29 20 605 20 488 0 589 -2
605 -14 18 -13 20 -29 21 -146 2 -127 1 -134 -21 -156 -22 -22 -33 -24 -113
-24 -65 0 -93 -4 -101 -14 -9 -10 -12 -272 -12 -1022 l0 -1009 22 -17 c17 -14
40 -18 110 -18 110 0 117 -8 118 -122 0 -130 65 -118 -628 -118 -521 -1 -597
1 -610 15 -20 20 -22 185 -2 209 11 13 33 16 107 16 148 0 134 -62 134 594 0
478 -2 555 -15 566 -23 19 -58 4 -79 -34 -10 -20 -27 -38 -37 -41 -10 -3 -27
-21 -38 -39 -11 -18 -32 -38 -46 -44 -31 -14 -44 -46 -38 -89 5 -29 -3 -40
-106 -142 -61 -61 -115 -111 -120 -111 -14 0 -25 -40 -22 -82 2 -25 -3 -42
-16 -53 -10 -9 -66 -63 -125 -120 -105 -101 -108 -105 -108 -147 0 -46 -22
-88 -45 -88 -43 0 -60 -99 -24 -144 20 -26 22 -26 154 -26 167 0 165 1 165
-119 0 -55 -5 -94 -13 -105 -12 -16 -51 -17 -612 -16 -415 0 -603 4 -612 12
-17 14 -18 199 -1 216 8 8 46 12 105 12 150 0 133 -130 133 1041 0 670 -3
1007 -10 1020 -9 17 -22 19 -103 19 -138 0 -137 -1 -137 167 0 113 3 140 17
155 15 17 47 18 605 18 575 0 588 0 608 -20z m4910 0 c18 -18 20 -33 20 -150
0 -173 3 -170 -174 -170 -106 0 -133 -3 -148 -17 -17 -15 -18 -41 -18 -405 l0
-388 25 -12 c28 -13 48 -1 70 42 7 14 24 32 37 39 14 7 33 26 42 42 10 17 28
35 40 40 13 6 31 24 40 40 10 17 28 35 40 40 13 6 31 24 40 40 10 17 29 35 42
41 14 6 33 26 44 43 11 17 30 37 43 44 13 7 32 26 41 42 10 17 28 35 40 40 13
6 31 24 40 40 10 17 28 35 39 40 12 6 34 28 49 50 15 21 33 39 40 39 7 0 24
16 37 35 13 20 35 38 48 41 35 9 48 40 28 70 -8 13 -21 24 -27 24 -6 0 -20 7
-30 17 -16 14 -18 33 -18 145 0 115 2 130 20 148 19 19 33 20 440 20 407 0
421 -1 440 -20 18 -18 20 -33 20 -150 0 -178 10 -170 -210 -170 l-171 0 -294
-292 c-161 -161 -301 -299 -309 -306 -13 -10 -16 -34 -16 -107 0 -90 1 -95 26
-112 14 -10 33 -27 42 -37 15 -17 44 -46 73 -73 5 -4 22 -21 39 -38 16 -16 38
-38 49 -47 16 -14 21 -30 21 -68 0 -32 5 -54 16 -62 8 -7 47 -43 86 -80 68
-65 70 -68 64 -103 -8 -40 13 -85 39 -85 8 0 27 -18 41 -40 15 -22 31 -40 37
-40 28 0 47 -34 47 -86 0 -46 4 -56 26 -71 14 -10 33 -27 42 -37 18 -20 51
-52 83 -80 14 -12 19 -29 19 -66 0 -33 5 -53 16 -62 9 -7 56 -52 104 -100 l88
-88 91 0 c112 0 119 -7 119 -123 0 -130 72 -118 -672 -117 -598 0 -640 1 -652
17 -9 12 -13 48 -14 102 0 116 5 121 130 121 102 0 120 7 120 47 0 16 -11 30
-34 44 -19 11 -42 31 -51 45 -9 14 -27 30 -39 36 -31 13 -44 44 -38 90 3 26
-1 40 -15 52 -10 9 -48 45 -85 80 -67 63 -68 65 -68 115 0 47 -3 53 -31 70
-17 10 -42 35 -55 55 -14 20 -31 36 -39 36 -7 0 -24 15 -37 33 -12 17 -36 46
-53 64 -16 17 -38 41 -47 52 -23 26 -34 26 -55 0 -10 -11 -37 -40 -60 -63
l-43 -42 0 -337 c0 -413 -16 -377 174 -377 166 0 166 0 166 -120 0 -72 -3 -90
-19 -104 -17 -16 -69 -17 -652 -17 -738 0 -667 -12 -667 118 0 123 1 123 163
123 122 0 137 2 155 20 20 20 20 33 20 1021 0 670 -3 1007 -10 1020 -10 17
-22 19 -146 19 -127 0 -136 1 -157 23 -21 21 -23 30 -21 147 2 149 0 135 20
154 14 14 86 16 645 16 616 0 629 0 649 -20z m-16951 -1772 l24 -38 222 0 222
0 27 40 c25 38 29 40 78 40 86 0 88 -4 88 -207 0 -162 -1 -174 -21 -194 -11
-11 -27 -18 -36 -15 -8 3 -32 6 -54 6 -35 0 -40 4 -59 40 -20 40 -21 40 -78
40 -62 0 -82 -11 -82 -46 0 -32 19 -43 85 -46 58 -3 60 -4 77 -40 10 -20 27
-39 38 -43 33 -10 50 -34 50 -70 0 -47 -8 -64 -42 -81 -16 -8 -36 -31 -44 -50
-14 -33 -16 -34 -70 -34 -71 0 -94 -12 -94 -50 0 -36 23 -50 83 -50 46 0 69
16 81 56 11 35 115 47 148 17 16 -14 18 -33 18 -146 0 -157 -5 -167 -85 -167
-48 0 -54 3 -84 40 l-32 40 -218 0 -218 0 -24 -37 c-38 -60 -91 -54 -92 8 -1
19 0 100 1 182 2 135 4 148 23 165 11 9 38 36 60 58 l41 42 82 -5 c94 -6 126
4 126 42 0 39 -25 55 -85 55 -50 0 -56 3 -81 35 -24 31 -31 35 -74 35 -86 0
-88 7 -92 211 -2 139 0 180 11 193 22 26 53 15 80 -26z m17122 -1224 c7 -9 12
-35 11 -58 -2 -43 14 -86 32 -86 5 0 47 -38 91 -85 l82 -85 51 0 c49 0 53 2
78 40 26 38 29 40 80 40 45 0 56 4 73 26 18 23 20 35 14 105 -9 117 -6 119
167 119 114 0 140 -3 151 -16 10 -12 13 -60 14 -187 l0 -170 -61 -64 -62 -63
-461 0 c-448 0 -462 1 -481 20 -16 16 -20 31 -18 72 2 40 -1 53 -16 62 -67 40
-67 41 -64 144 3 96 3 97 34 117 17 11 41 35 53 53 l21 32 99 0 c78 0 101 -3
112 -16z m-6311 -774 c29 -36 36 -40 78 -40 54 0 60 -3 91 -47 20 -30 27 -33
73 -33 68 0 88 -18 88 -79 0 -49 21 -91 45 -91 8 0 21 -10 29 -22 13 -18 16
-55 16 -190 l0 -167 -37 -28 c-51 -37 -53 -41 -53 -95 0 -58 -23 -78 -90 -78
-50 0 -70 -13 -70 -45 0 -33 20 -45 77 -45 41 0 57 -5 73 -22 11 -12 20 -25
20 -30 0 -4 13 -14 30 -23 16 -8 36 -28 44 -44 9 -16 31 -38 51 -49 l35 -21 0
-220 0 -220 -26 -18 c-59 -41 -65 -51 -59 -98 6 -37 4 -46 -15 -62 -12 -10
-41 -37 -64 -60 -37 -38 -47 -43 -88 -43 -43 0 -50 -4 -79 -40 l-32 -40 -133
0 -133 0 -37 -45 -36 -45 -129 0 c-140 0 -129 -4 -186 64 -21 26 -23 26 -156
26 l-134 0 -26 39 c-15 22 -34 42 -44 45 -10 3 -28 22 -41 41 -21 33 -26 35
-74 35 -69 0 -88 18 -88 83 0 51 -19 87 -46 87 -42 0 -58 99 -23 144 20 26 22
26 146 26 l125 0 124 -125 123 -125 255 0 256 0 103 103 104 103 -2 87 c-2 86
-13 117 -41 117 -8 0 -27 18 -42 40 -15 22 -35 42 -44 45 -10 4 -28 21 -40 38
-32 46 -34 47 -128 47 -94 0 -96 1 -129 48 l-22 32 -135 0 c-171 0 -174 2
-174 123 0 133 -11 127 247 127 l217 0 87 88 c48 48 94 93 103 100 13 10 16
32 16 108 l0 94 -31 19 c-17 10 -42 35 -55 55 -23 34 -28 36 -79 36 -50 0 -55
2 -85 40 l-32 40 -138 0 c-134 0 -138 -1 -153 -24 -30 -46 -47 -56 -94 -56
-43 0 -49 -4 -109 -65 -58 -60 -62 -67 -57 -99 4 -24 0 -44 -11 -61 -16 -24
-21 -25 -110 -25 -134 0 -128 -10 -128 242 1 112 1 208 1 215 2 33 32 43 126
43 l94 0 22 33 c13 17 28 35 34 39 5 4 182 8 392 8 l381 0 32 -40z m3330 0
l32 -40 94 0 94 0 26 -40 c14 -22 35 -42 45 -45 10 -3 28 -22 39 -41 12 -18
26 -34 31 -34 6 0 21 -11 34 -24 21 -21 24 -31 19 -69 -6 -40 -4 -46 21 -63
58 -41 67 -54 63 -92 -6 -47 6 -72 45 -97 l32 -20 3 -219 c2 -193 0 -221 -14
-237 -16 -18 -47 -19 -655 -19 -635 0 -638 0 -649 -21 -7 -12 -11 -75 -11
-152 0 -113 2 -133 16 -142 57 -34 65 -46 65 -96 0 -48 23 -89 50 -89 5 0 21
-18 34 -39 14 -22 34 -42 45 -46 11 -3 30 -22 41 -41 l22 -34 220 0 221 0 86
86 c47 47 94 93 104 102 14 13 16 25 11 58 -5 35 -3 45 16 61 12 10 40 37 63
61 l41 42 132 0 c167 0 164 2 164 -126 l0 -94 -40 -25 c-41 -26 -45 -35 -41
-92 2 -28 -9 -44 -103 -137 -101 -102 -107 -106 -149 -106 -47 0 -64 -10 -90
-52 -17 -27 -20 -28 -112 -28 l-94 0 -37 -45 -36 -45 -129 0 c-114 0 -131 2
-145 19 -66 77 -50 71 -194 71 -122 0 -131 1 -148 22 -15 19 -40 44 -73 75 -5
4 -22 22 -38 38 -16 17 -34 35 -40 40 -6 6 -42 43 -81 83 -38 39 -73 72 -78
72 -22 0 -36 34 -34 80 2 44 -1 51 -31 74 -17 15 -38 31 -44 37 -10 7 -13 114
-13 470 l0 461 69 66 c39 37 77 73 85 80 11 9 16 30 16 68 0 51 2 56 33 74 17
11 45 35 60 55 25 31 33 35 77 35 44 0 51 3 80 40 29 36 36 40 78 40 54 0 60
3 91 48 l22 32 264 0 263 0 32 -40z m-11252 -62 c17 -21 46 -50 84 -83 17 -14
19 -28 18 -88 -3 -115 -3 -115 40 -142 38 -24 40 -28 40 -77 0 -52 19 -88 46
-88 7 0 20 -10 29 -22 12 -19 14 -39 9 -104 -6 -74 -5 -83 14 -99 73 -63 72
-63 70 -111 -1 -48 5 -59 58 -90 17 -10 19 -23 17 -97 -2 -48 1 -97 6 -110 12
-30 43 -39 70 -20 19 13 21 24 21 113 0 98 0 100 28 117 43 27 52 43 52 98 0
49 2 53 38 76 l37 24 5 100 5 99 35 24 c42 28 50 45 43 93 -6 39 3 52 62 93
27 19 28 20 22 103 l-6 84 64 64 64 65 380 0 c332 0 382 -2 395 -16 19 -18 18
-14 20 -106 2 -71 -6 -106 -28 -120 -6 -4 -69 -8 -140 -8 -106 0 -133 -3 -148
-17 -17 -15 -18 -50 -18 -685 0 -442 4 -676 10 -689 10 -17 22 -19 144 -19
177 0 179 -2 180 -127 0 -62 -4 -96 -13 -107 -12 -14 -63 -16 -484 -16 -424 0
-472 2 -489 17 -15 13 -18 32 -18 103 0 127 4 130 174 130 115 0 135 2 149 18
15 16 16 76 17 565 2 581 2 577 -45 577 -41 0 -50 -25 -47 -121 3 -95 4 -94
-62 -147 -11 -9 -16 -29 -16 -62 0 -37 -5 -54 -19 -66 -76 -65 -72 -56 -65
-146 3 -46 2 -88 -3 -93 -4 -6 -25 -23 -45 -38 -36 -26 -38 -31 -36 -76 2 -48
-12 -81 -35 -81 -6 0 -19 -7 -29 -17 -15 -13 -18 -32 -18 -109 0 -71 -4 -96
-16 -108 -8 -9 -19 -16 -24 -16 -23 0 -40 -34 -40 -81 0 -81 -14 -89 -167 -89
l-128 0 -46 48 c-25 26 -53 53 -62 60 -14 10 -17 31 -17 107 l0 95 -40 25
c-39 24 -40 27 -40 80 0 47 -3 56 -26 72 -66 46 -67 48 -59 139 7 91 12 81
-66 148 -14 11 -19 29 -19 63 0 43 -4 51 -41 85 l-42 38 6 75 c4 41 3 85 -3
99 -12 32 -46 43 -69 22 -17 -15 -17 -49 -14 -528 2 -355 7 -515 14 -525 8 -9
38 -13 101 -13 80 0 91 -2 113 -24 21 -21 24 -33 24 -102 -1 -52 -6 -87 -15
-102 l-14 -22 -387 0 c-346 0 -388 2 -405 17 -15 13 -18 32 -18 105 0 121 7
128 134 128 68 0 97 4 105 14 9 10 12 193 12 692 0 631 -1 680 -18 691 -11 8
-51 13 -109 13 -117 0 -124 7 -124 125 0 57 5 87 16 103 l15 22 385 0 c383 0
384 0 402 -22z m4076 6 c18 -17 18 -17 18 -109 0 -92 0 -92 -19 -110 -13 -14
-33 -16 -102 -15 -113 3 -110 4 -123 -25 -9 -21 -8 -28 7 -45 10 -11 23 -20
30 -20 7 0 20 -9 29 -19 14 -15 16 -29 11 -60 -7 -42 0 -53 59 -94 25 -17 26
-22 26 -112 0 -90 1 -94 28 -114 15 -12 33 -26 40 -31 6 -6 12 -33 12 -60 0
-37 5 -54 19 -66 77 -66 73 -57 65 -144 l-7 -80 42 -38 c37 -34 41 -42 41 -86
0 -75 44 -110 86 -69 14 15 16 30 10 110 l-6 93 35 21 c45 27 58 50 49 94 -6
35 -3 39 69 101 15 12 18 29 17 87 -2 118 -3 115 40 142 39 24 40 27 40 80 0
47 3 56 26 72 60 42 62 46 62 135 0 111 -11 128 -83 128 -35 0 -59 5 -69 16
-18 17 -18 17 -18 109 0 92 0 92 18 109 13 14 60 16 359 16 l344 0 15 -22 c11
-16 16 -46 16 -103 0 -118 -7 -125 -124 -125 -128 0 -132 -3 -128 -120 2 -76
0 -96 -14 -111 -9 -11 -23 -19 -30 -19 -25 0 -47 -47 -40 -85 7 -36 6 -38 -65
-99 -16 -14 -19 -30 -19 -111 l0 -95 -40 -25 c-41 -26 -43 -32 -40 -97 1 -29
-4 -40 -25 -55 -67 -46 -68 -48 -61 -137 5 -65 3 -85 -9 -103 -9 -13 -21 -23
-27 -23 -29 0 -48 -34 -48 -83 0 -51 -19 -87 -45 -87 -30 0 -40 -32 -37 -121
3 -77 1 -90 -16 -105 -74 -63 -74 -63 -67 -104 7 -41 7 -41 -67 -104 -16 -14
-19 -29 -18 -89 2 -118 3 -115 -40 -142 -38 -24 -40 -28 -40 -77 0 -52 -19
-88 -46 -88 -25 0 -46 -46 -39 -84 7 -35 5 -38 -79 -120 -55 -53 -86 -91 -86
-105 l0 -21 -335 0 -335 0 0 187 c0 233 -6 223 130 223 114 0 124 -7 121 -77
-2 -73 13 -83 129 -83 l97 0 27 40 c14 22 33 40 41 40 25 0 48 46 41 83 -5 26
-1 40 15 60 11 15 27 27 34 27 25 0 35 37 35 129 l0 91 40 20 c30 15 40 26 40
45 0 18 -11 32 -40 50 -38 24 -40 28 -40 75 0 37 -5 54 -19 66 -77 66 -73 56
-65 147 l6 83 -30 26 c-17 14 -37 28 -44 30 -8 3 -15 29 -18 69 -4 52 -9 65
-26 74 -51 25 -54 33 -54 130 0 100 -1 102 -66 141 -15 9 -18 22 -16 62 1 40
-2 56 -17 68 -79 67 -74 58 -68 146 7 86 7 87 -67 146 -11 9 -16 29 -16 62 0
35 -5 54 -17 65 -71 59 -74 64 -67 100 4 25 1 43 -10 60 -16 24 -21 25 -109
25 -50 0 -97 4 -103 8 -23 15 -31 49 -29 122 3 92 2 85 21 104 14 14 67 16
439 16 372 0 425 -2 439 -16z m10318 -1 c15 -13 18 -32 18 -106 0 -122 -5
-127 -125 -127 -75 0 -95 -3 -107 -17 -14 -16 -16 -72 -19 -399 -4 -410 -4
-414 47 -414 30 0 44 27 44 84 l0 46 305 305 c168 168 308 305 312 305 14 0
43 34 43 50 0 38 -26 44 -165 41 -174 -3 -176 -2 -172 130 3 76 6 94 22 105
28 21 932 21 961 0 16 -13 19 -27 19 -111 0 -127 2 -125 -169 -125 -106 0
-133 -3 -148 -17 -17 -15 -18 -50 -18 -685 0 -442 4 -676 10 -689 10 -17 22
-19 146 -19 128 0 136 -1 158 -23 21 -21 24 -33 24 -103 0 -50 -5 -87 -14
-101 l-14 -23 -475 0 -475 0 -14 23 c-9 14 -14 51 -14 101 0 70 3 82 24 103
22 22 30 23 158 23 121 0 136 2 145 18 16 29 16 859 1 877 -21 25 -48 17 -77
-22 -15 -21 -32 -40 -37 -42 -29 -12 -46 -44 -46 -86 l0 -45 -275 -275 c-151
-151 -280 -275 -285 -275 -5 0 -14 -17 -21 -38 -9 -31 -8 -45 5 -75 l15 -37
95 0 c128 0 136 -7 136 -126 0 -138 56 -124 -500 -124 -556 0 -500 -14 -500
124 0 124 3 126 174 126 103 0 136 3 145 14 9 10 12 190 12 692 0 635 -1 679
-17 691 -12 9 -58 13 -148 13 -166 0 -166 0 -166 123 0 70 4 95 17 109 15 17
43 18 481 18 419 0 467 -2 484 -17z m-16746 -1065 c46 -46 93 -91 104 -100 19
-17 20 -30 20 -233 0 -209 -1 -216 -22 -233 -12 -9 -58 -54 -103 -99 l-83 -83
-215 0 -216 0 -25 36 c-13 20 -38 45 -55 55 l-31 19 0 94 c0 98 -7 117 -49
131 -21 6 -41 45 -41 80 0 37 18 68 53 90 32 20 32 21 35 115 3 117 12 130 88
130 48 0 55 3 75 33 13 17 28 35 34 39 5 4 86 8 179 8 l168 0 84 -82z"/>
<path d="M20648 19269 c-22 -13 -24 -62 -2 -79 11 -10 23 -11 42 -4 36 13 42
56 10 78 -26 19 -27 19 -50 5z"/>
<path d="M20688 18880 c-63 -63 -69 -81 -38 -103 28 -19 109 -11 134 14 28 26
29 115 2 135 -11 8 -25 14 -30 13 -6 0 -37 -26 -68 -59z"/>
<path d="M2010 19170 c-18 -18 -20 -33 -20 -150 0 -119 2 -131 21 -147 11 -10
39 -37 62 -60 36 -38 46 -43 87 -43 82 0 83 2 83 203 0 222 3 217 -125 217
-75 0 -91 -3 -108 -20z"/>
<path d="M6242 19248 c-9 -9 -12 -74 -12 -229 0 -232 4 -249 50 -249 44 0 50
32 50 248 0 121 -4 211 -10 223 -12 22 -59 26 -78 7z"/>
<path d="M9082 19174 c-18 -12 -22 -25 -22 -69 0 -81 50 -115 86 -60 21 33 14
113 -12 132 -23 16 -25 16 -52 -3z"/>
<path d="M13152 19178 c-7 -7 -12 -21 -12 -33 0 -12 5 -26 12 -33 7 -7 21 -12
33 -12 12 0 26 5 33 12 7 7 12 21 12 33 0 12 -5 26 -12 33 -7 7 -21 12 -33 12
-12 0 -26 -5 -33 -12z"/>
<path d="M13156 18924 c-22 -21 -29 -57 -22 -98 8 -43 28 -60 61 -52 47 12 58
103 19 147 -21 23 -38 24 -58 3z"/>
<path d="M14608 19263 c-37 -6 -58 -38 -58 -89 0 -75 62 -97 95 -33 9 16 29
36 45 44 21 11 30 23 30 40 0 39 -33 50 -112 38z"/>
<path d="M14567 18922 c-33 -37 -14 -138 27 -147 86 -17 94 -16 115 11 31 40
27 62 -13 69 -24 5 -40 17 -57 43 -28 43 -49 50 -72 24z"/>
<path d="M15899 19243 c-8 -9 -14 -36 -14 -60 0 -58 28 -83 91 -83 59 0 84 25
84 84 0 61 -17 76 -89 76 -42 0 -62 -5 -72 -17z"/>
<path d="M15913 18925 c-27 -19 -38 -71 -23 -110 15 -39 25 -45 87 -45 42 0
55 4 67 22 23 33 21 103 -4 128 -25 25 -95 27 -127 5z"/>
<path d="M17396 19238 c-22 -31 -20 -80 5 -112 17 -22 28 -26 69 -26 41 0 52
4 69 26 25 32 27 81 5 112 -13 18 -25 22 -74 22 -49 0 -61 -4 -74 -22z"/>
<path d="M17400 18913 c-18 -22 -21 -37 -17 -72 3 -27 12 -50 23 -58 19 -14
102 -18 120 -5 37 24 44 96 13 136 -17 22 -28 26 -69 26 -41 0 -52 -4 -70 -27z"/>
<path d="M18897 18923 c-39 -45 -27 -138 20 -149 39 -10 58 17 58 82 0 44 -4
59 -19 70 -26 18 -40 18 -59 -3z"/>
<path d="M20477 17342 c-23 -25 -23 -103 1 -130 22 -26 103 -35 132 -15 24 17
26 47 4 65 -9 7 -36 32 -60 56 -49 48 -54 49 -77 24z"/>
<path d="M20892 17351 c-8 -5 -12 -22 -10 -42 3 -29 7 -34 31 -37 34 -4 57 13
57 42 0 39 -43 60 -78 37z"/>
<path d="M20488 16938 c-48 -39 -16 -88 58 -88 25 0 54 5 65 10 26 14 24 55
-3 74 -27 19 -98 21 -120 4z"/>
<path d="M20822 16934 c-27 -19 -29 -60 -3 -74 11 -5 38 -10 61 -10 57 0 80
14 80 50 0 19 -7 33 -19 40 -29 15 -93 12 -119 -6z"/>
<path d="M20634 15320 c-25 -38 -29 -40 -79 -40 -41 0 -56 -5 -73 -23 -26 -28
-30 -92 -6 -125 15 -21 20 -22 194 -22 l179 0 23 30 c12 17 37 39 55 50 22 13
33 27 33 43 0 36 -19 47 -81 47 -55 0 -57 1 -83 40 -25 39 -28 40 -81 40 -53
0 -56 -1 -81 -40z"/>
<path d="M768 17270 c-29 -18 -23 -67 10 -84 15 -8 37 -28 50 -45 27 -37 66
-42 83 -10 14 27 6 106 -12 124 -19 18 -110 28 -131 15z"/>
<path d="M422 17178 c-29 -38 -19 -128 18 -148 27 -14 193 -13 208 2 15 15 15
51 0 66 -7 7 -35 12 -64 12 -49 0 -54 2 -84 40 -32 41 -59 50 -78 28z"/>
<path d="M13227 12655 l-41 -45 -797 0 -797 0 -32 -40 -32 -40 -758 0 -759 0
-28 -40 -28 -40 -758 0 -759 0 -21 -26 c-59 -71 18 -64 -732 -64 l-675 0 -13
-22 c-10 -17 -13 -58 -12 -152 1 -113 4 -130 20 -142 16 -12 233 -14 1317 -14
l1298 0 26 40 27 40 1342 0 1343 0 36 45 37 45 759 0 760 0 14 23 c11 17 15
67 16 229 0 196 -1 209 -20 228 -19 19 -32 20 -356 20 l-337 0 -40 -45z"/>
<path d="M7750 11680 c-19 -19 -19 -35 -20 -440 0 -408 0 -420 20 -440 20 -20
32 -20 525 -20 492 0 506 1 525 20 19 19 20 33 20 440 0 407 -1 421 -20 440
-19 19 -33 20 -525 20 -489 0 -506 -1 -525 -20z"/>
<path d="M5910 10831 c-28 -35 -37 -39 -90 -45 -52 -6 -62 -11 -77 -36 -18
-32 -58 -50 -108 -50 -25 0 -38 -8 -64 -40 -29 -37 -36 -40 -81 -40 -45 0 -52
-3 -81 -40 -26 -32 -39 -40 -64 -40 -48 0 -91 -18 -105 -45 -14 -27 -57 -45
-105 -45 -25 0 -38 -8 -64 -40 -29 -37 -36 -40 -81 -40 -44 0 -51 -3 -79 -39
-27 -34 -37 -39 -83 -43 -46 -5 -57 -10 -88 -47 -33 -38 -39 -41 -87 -41 -47
0 -54 -3 -74 -32 -31 -45 -37 -48 -90 -48 -43 0 -49 -4 -83 -45 -35 -42 -40
-45 -86 -45 -45 0 -52 -3 -81 -40 -30 -38 -36 -40 -85 -40 -48 0 -55 -3 -75
-32 -31 -45 -37 -48 -90 -48 -43 0 -49 -4 -83 -45 -34 -41 -41 -45 -83 -45
-43 0 -48 -3 -124 -80 -76 -77 -81 -80 -125 -80 -40 0 -50 -5 -77 -36 -18 -20
-44 -42 -59 -50 -30 -16 -37 -51 -16 -72 7 -7 35 -12 63 -12 48 0 55 3 88 40
32 36 40 40 82 40 38 0 51 5 68 26 51 61 56 64 105 64 45 0 51 3 81 40 29 37
36 40 81 40 45 0 52 3 81 40 30 37 36 40 81 40 41 0 53 4 71 26 51 61 56 64
105 64 45 0 51 3 81 40 29 37 36 40 81 40 45 0 52 3 81 40 30 37 36 40 81 40
41 0 53 4 71 26 12 14 30 34 40 43 9 9 35 33 55 55 32 31 48 39 88 43 41 5 55
12 85 44 32 34 41 39 82 39 40 0 49 4 76 36 25 31 38 38 87 46 47 7 63 15 88
44 25 28 41 36 81 41 41 5 56 13 86 44 31 34 42 39 81 39 40 0 49 5 81 40 26
29 43 40 65 40 46 0 88 19 102 45 14 25 62 45 111 45 18 0 35 12 58 40 l32 40
177 0 c187 0 202 3 202 45 0 43 -13 45 -242 45 l-217 0 -31 -39z"/>
<path d="M20812 14518 c-7 -7 -12 -21 -12 -33 0 -34 20 -45 80 -45 60 0 80 11
80 45 0 34 -20 45 -80 45 -31 0 -61 -5 -68 -12z"/>
<path d="M20898 13859 c-25 -14 -24 -65 1 -79 11 -5 24 -10 30 -10 16 0 41 30
41 50 0 21 -25 50 -43 50 -7 0 -20 -5 -29 -11z"/>
<path d="M20472 13848 c-7 -7 -12 -34 -12 -60 0 -68 30 -98 98 -98 26 0 53 5
60 12 22 22 14 57 -19 77 -17 11 -39 33 -50 50 -20 33 -55 41 -77 19z"/>
<path d="M20476 13429 c-15 -22 -11 -48 8 -61 6 -4 110 -8 232 -8 231 0 244 2
244 45 0 43 -13 45 -246 45 -216 0 -223 -1 -238 -21z"/>
<path d="M20478 13109 c-22 -12 -23 -52 -2 -73 29 -30 74 -10 74 32 0 46 -32
65 -72 41z"/>
<path d="M768 14359 c-11 -6 -18 -22 -18 -39 0 -23 7 -33 30 -45 16 -8 34 -24
40 -34 13 -25 39 -51 51 -51 5 0 18 9 29 20 36 36 19 136 -24 145 -62 12 -93
13 -108 4z"/>
<path d="M426 14258 c-25 -36 -15 -120 17 -140 22 -14 114 -9 127 7 17 20 5
62 -20 70 -10 3 -33 24 -50 46 -36 45 -52 48 -74 17z"/>
<path d="M20476 12338 c-9 -12 -16 -38 -16 -58 0 -58 22 -80 81 -80 47 0 53
-3 91 -45 37 -40 46 -45 85 -45 32 0 48 5 61 22 48 61 58 67 99 61 54 -7 83
10 83 48 0 24 -7 32 -35 46 -19 9 -35 20 -35 23 0 3 -9 16 -20 28 -20 21 -29
22 -200 22 -174 0 -179 -1 -194 -22z"/>
<path d="M20472 11188 c-28 -28 -7 -78 34 -78 29 0 46 23 42 57 -2 23 -8 29
-33 31 -17 2 -36 -3 -43 -10z"/>
<path d="M20887 11193 c-11 -11 -8 -58 5 -71 7 -7 21 -12 33 -12 12 0 26 5 33
12 7 7 12 21 12 33 0 12 -5 26 -12 33 -13 13 -60 16 -71 5z"/>
<path d="M20715 11001 c-8 -16 -28 -40 -43 -53 -16 -12 -37 -35 -47 -50 -15
-25 -23 -28 -69 -28 -42 0 -57 -5 -74 -23 -26 -28 -30 -92 -6 -125 15 -22 19
-22 239 -22 220 0 224 0 239 22 9 12 16 40 16 60 0 34 -8 46 -78 116 -42 42
-85 89 -95 105 -24 37 -62 37 -82 -2z"/>
<path d="M20822 10444 c-27 -19 -29 -60 -3 -74 11 -5 38 -10 61 -10 57 0 80
14 80 50 0 19 -7 33 -19 40 -29 15 -93 12 -119 -6z"/>
<path d="M20640 9854 c-10 -11 -11 -23 -4 -42 17 -48 84 -38 84 12 0 43 -53
63 -80 30z"/>
<path d="M20480 9100 c-15 -15 -20 -33 -20 -69 0 -92 58 -109 100 -30 6 10 24
26 40 34 32 16 40 51 18 73 -21 21 -115 15 -138 -8z"/>
<path d="M20810 9106 c-18 -23 -8 -59 21 -73 15 -7 39 -29 53 -48 45 -58 86
-37 86 44 0 68 -24 91 -94 91 -35 0 -58 -5 -66 -14z"/>
<path d="M20548 8833 c-21 -21 -49 -48 -63 -61 -25 -21 -26 -25 -12 -45 14
-21 20 -22 237 -25 156 -2 227 1 236 9 26 21 17 58 -19 79 -18 11 -43 33 -55
50 l-23 30 -132 0 -133 0 -36 -37z"/>
<path d="M20480 8440 c-21 -21 -18 -46 8 -67 22 -18 93 -16 120 3 27 19 29 60
3 74 -34 18 -109 12 -131 -10z"/>
<path d="M20818 8449 c-23 -13 -23 -51 0 -72 21 -19 92 -23 123 -7 12 7 19 21
19 40 0 19 -7 33 -19 40 -25 13 -101 13 -123 -1z"/>
<path d="M20488 7119 c-25 -14 -24 -65 1 -79 12 -6 103 -10 226 -10 123 0 214
4 226 10 12 7 19 21 19 40 0 19 -7 33 -19 40 -26 13 -430 13 -453 -1z"/>
<path d="M20812 6349 c-20 -25 -28 -32 -64 -60 -31 -23 -36 -50 -12 -74 25
-24 192 -11 217 17 21 25 22 86 1 116 -22 31 -116 32 -142 1z"/>
<path d="M20480 5940 c-14 -14 -20 -33 -20 -65 0 -32 6 -51 20 -65 19 -19 33
-20 235 -20 206 0 216 1 236 21 18 18 21 30 17 71 -8 77 -10 77 -255 78 -200
0 -214 -1 -233 -20z"/>
<path d="M20526 5540 c-50 -9 -66 -32 -66 -90 0 -52 18 -76 60 -82 23 -3 25
-7 28 -68 2 -35 8 -70 14 -77 8 -10 49 -13 153 -13 104 0 145 3 153 13 6 7 12
42 14 77 3 60 4 64 31 71 46 12 57 27 57 80 0 62 -20 84 -85 92 -38 6 -52 3
-67 -10 -25 -22 -19 -54 12 -70 32 -16 50 -41 50 -70 l0 -23 -165 0 -165 0 0
23 c0 29 18 54 50 70 31 16 37 43 14 68 -18 20 -26 21 -88 9z"/>
<path d="M20898 4209 c-22 -13 -24 -62 -2 -79 11 -10 23 -11 42 -4 36 13 42
56 10 78 -26 19 -27 19 -50 5z"/>
<path d="M20715 4010 c-8 -16 -26 -37 -40 -46 -14 -9 -34 -31 -46 -50 -19 -32
-24 -34 -74 -34 -43 0 -59 -5 -75 -22 -27 -30 -28 -100 0 -128 19 -19 33 -20
235 -20 263 0 253 -4 253 122 0 112 -11 128 -83 128 -53 0 -56 1 -80 40 -32
51 -67 55 -90 10z"/>
<path d="M20817 3452 c-23 -25 -21 -59 2 -72 11 -5 38 -10 61 -10 57 0 80 14
80 50 0 36 -23 50 -83 50 -30 0 -49 -6 -60 -18z"/>
<path d="M20482 3368 c-7 -7 -12 -21 -12 -33 0 -34 20 -45 80 -45 60 0 80 11
80 45 0 12 -5 26 -12 33 -16 16 -120 16 -136 0z"/>
<path d="M20476 3018 c-9 -12 -16 -38 -16 -58 0 -20 7 -46 16 -58 15 -22 19
-22 239 -22 220 0 224 0 239 22 9 12 16 38 16 58 0 20 -7 46 -16 58 -15 22
-19 22 -239 22 -220 0 -224 0 -239 -22z"/>
<path d="M20476 2614 c-24 -23 -21 -105 4 -132 16 -17 32 -22 74 -22 35 0 58
5 66 14 19 23 8 59 -22 74 -16 7 -32 21 -38 32 -26 49 -57 61 -84 34z"/>
<path d="M20887 2623 c-11 -11 -8 -58 5 -71 28 -28 78 -7 78 33 0 12 -5 26
-12 33 -13 13 -60 16 -71 5z"/>
<path d="M3488 7412 c-70 -70 -137 -135 -149 -146 -20 -17 -21 -24 -14 -98 5
-64 3 -84 -9 -104 -9 -13 -22 -24 -30 -24 -7 0 -20 -8 -29 -18 -15 -17 -17
-74 -17 -609 0 -559 1 -591 18 -606 10 -10 24 -17 30 -17 23 0 44 -47 37 -84
-7 -36 3 -51 69 -104 11 -9 16 -29 16 -62 0 -38 5 -54 21 -67 11 -10 39 -37
62 -60 l41 -43 209 0 209 0 21 26 c12 14 29 33 38 41 9 8 28 27 43 42 59 60
72 72 90 87 14 13 17 25 13 55 -5 41 20 89 48 89 28 0 35 40 35 209 0 124 3
173 13 180 6 6 25 21 41 34 l29 23 0 259 0 259 -24 17 c-62 46 -59 35 -59 224
0 148 -2 176 -16 187 -65 52 -73 64 -67 105 4 32 1 44 -13 57 -74 63 -77 66
-70 105 9 57 -13 81 -75 81 -51 0 -53 1 -113 71 -14 17 -31 19 -143 19 l-128
-1 -127 -127z"/>
<path d="M14140 3750 c-30 -38 -35 -40 -86 -40 -46 0 -56 -4 -69 -24 -11 -17
-14 -35 -10 -60 6 -30 3 -39 -22 -64 -15 -16 -35 -31 -43 -34 -10 -3 -16 -24
-20 -68 -5 -58 -8 -65 -35 -80 -16 -9 -36 -27 -43 -41 -16 -30 -9 -85 14 -110
16 -18 39 -19 441 -19 410 0 424 1 443 20 28 28 27 98 0 128 -12 12 -25 22
-30 22 -24 0 -40 34 -40 86 0 52 -1 55 -40 79 -39 24 -40 27 -40 79 0 69 -18
86 -88 86 -49 0 -53 2 -78 40 l-27 40 -97 0 -98 0 -32 -40z"/>
<path d="M655 2670 c-24 -38 -28 -40 -73 -40 -27 0 -56 -6 -65 -13 -39 -28
-29 -139 14 -152 10 -3 32 -24 49 -46 l32 -39 90 0 90 0 61 62 c56 56 62 65
62 104 0 59 -24 82 -89 86 -47 3 -53 6 -75 41 -33 51 -63 50 -96 -3z"/>
</g>
</svg>
